<svg width="64" height="64" viewBox="0 0 64 64" fill="none" xmlns="http://www.w3.org/2000/svg">
  <defs>
    <linearGradient id="g" x1="8" y1="6" x2="58" y2="60" gradientUnits="userSpaceOnUse">
      <stop stop-color="#2563EB"/>
      <stop offset=".55" stop-color="#4F46E5"/>
      <stop offset="1" stop-color="#0EA5E9"/>
    </linearGradient>
  </defs>
  <rect x="3" y="3" width="58" height="58" rx="18" fill="url(#g)"/>
  <path d="M19 18h18c1.5 0 2.8.6 3.8 1.6l6 6a5.4 5.4 0 0 1 0 7.6L33.2 46.8a5.4 5.4 0 0 1-7.6 0l-9.8-9.8a5.4 5.4 0 0 1-1.6-3.8V23a5 5 0 0 1 4.8-5Z" fill="white" fill-opacity=".14" stroke="white" stroke-opacity=".45" stroke-width="1.5"/>
  <circle cx="22" cy="26" r="3" fill="white" fill-opacity=".9"/>
  <path d="M21 42l7-7.5 5.5 4 9-10.5" stroke="white" stroke-width="3.5" stroke-linecap="round" stroke-linejoin="round"/>
  <path d="M38 28h4.5v4.5" stroke="white" stroke-width="3" stroke-linecap="round" stroke-linejoin="round"/>
</svg>
